<svg width="307" height="101" viewBox="0 0 307 101" fill="none" xmlns="http://www.w3.org/2000/svg">
<g clip-path="url(#clip0_1016_254)">
<mask id="mask0_1016_254" style="mask-type:luminance" maskUnits="userSpaceOnUse" x="0" y="0" width="307" height="101">
<path d="M307 0H0V101H307V0Z" fill="white"/>
</mask>
<g mask="url(#mask0_1016_254)">
<path d="M51.594 70.3715L13.237 4.79492L0 31.7793L37.0034 96.3006H66.6361L104.091 31.1763L88.8983 5.09642H50.9925L36.101 31.1763H74.1572L51.594 70.3715Z" fill="#E3B733"/>
<path d="M139.277 19.7529L146.524 41.7131H146.809L154.042 19.7529H159.589L149.773 47.6526H143.546L133.743 19.7529H139.277ZM166.88 48.0749C165.557 48.0749 164.365 47.8387 163.304 47.3664C162.253 46.885 161.419 46.1768 160.803 45.2415C160.195 44.3058 159.892 43.1525 159.892 41.7811C159.892 40.6006 160.109 39.6241 160.544 38.8521C160.979 38.0804 161.573 37.4627 162.325 36.9996C163.078 36.5363 163.925 36.1865 164.868 35.9507C165.82 35.7052 166.803 35.5281 167.818 35.4193C169.042 35.2922 170.034 35.1786 170.796 35.0785C171.557 34.9697 172.11 34.8061 172.454 34.5882C172.808 34.3613 172.985 34.0116 172.985 33.5392V33.4574C172.985 32.4312 172.681 31.6367 172.074 31.0736C171.467 30.5104 170.592 30.229 169.45 30.229C168.244 30.229 167.288 30.4922 166.581 31.019C165.883 31.5459 165.412 32.1678 165.167 32.8853L160.572 32.2313C160.934 30.96 161.532 29.8974 162.366 29.0437C163.2 28.1809 164.22 27.5361 165.425 27.1093C166.631 26.6733 167.963 26.4554 169.422 26.4554C170.429 26.4554 171.43 26.5735 172.427 26.8096C173.424 27.0457 174.335 27.4362 175.16 27.9811C175.985 28.517 176.647 29.2481 177.145 30.1745C177.653 31.1009 177.906 32.2586 177.906 33.6483V47.6526H173.175V44.7781H173.012C172.713 45.3592 172.291 45.9044 171.747 46.413C171.213 46.9123 170.537 47.3166 169.721 47.6253C168.915 47.925 167.968 48.0749 166.88 48.0749ZM168.158 44.4511C169.146 44.4511 170.003 44.256 170.728 43.8655C171.453 43.4657 172.01 42.9391 172.4 42.2852C172.799 41.6312 172.998 40.9182 172.998 40.1465V37.6805C172.844 37.8079 172.581 37.9257 172.21 38.0348C171.847 38.1439 171.439 38.2392 170.986 38.321C170.533 38.4025 170.084 38.4754 169.64 38.5389C169.196 38.6024 168.811 38.657 168.484 38.7022C167.75 38.8023 167.093 38.9657 166.513 39.1929C165.933 39.4197 165.475 39.7377 165.14 40.1465C164.804 40.546 164.637 41.0636 164.637 41.6993C164.637 42.6077 164.968 43.2934 165.629 43.7564C166.291 44.2195 167.134 44.4511 168.158 44.4511ZM196.166 38.8521V26.7278H201.088V47.6526H196.316V43.9336H196.098C195.627 45.1051 194.852 46.0633 193.773 46.808C192.703 47.5528 191.385 47.925 189.816 47.925C188.448 47.925 187.238 47.6208 186.186 47.0124C185.144 46.3947 184.328 45.5001 183.739 44.3286C183.15 43.148 182.855 41.722 182.855 40.0509V26.7278H187.777V39.2882C187.777 40.614 188.14 41.6675 188.865 42.4485C189.59 43.2296 190.542 43.6201 191.72 43.6201C192.445 43.6201 193.148 43.4432 193.827 43.089C194.507 42.7347 195.065 42.2079 195.5 41.5087C195.944 40.8002 196.166 39.9148 196.166 38.8521ZM211.07 19.7529V47.6526H206.149V19.7529H211.07ZM226.56 26.7278V30.5422H214.554V26.7278H226.56ZM217.518 21.7146H222.44V41.3588C222.44 42.0218 222.54 42.5303 222.739 42.8846C222.947 43.2296 223.22 43.4657 223.555 43.5931C223.89 43.7202 224.262 43.7837 224.67 43.7837C224.978 43.7837 225.259 43.7609 225.513 43.7157C225.776 43.6701 225.975 43.6294 226.111 43.5931L226.94 47.4482C226.677 47.539 226.301 47.6391 225.812 47.7479C225.331 47.857 224.742 47.9205 224.044 47.9388C222.812 47.9751 221.701 47.7889 220.713 47.3801C219.725 46.9624 218.941 46.3174 218.361 45.4456C217.79 44.5737 217.509 43.484 217.518 42.1761V21.7146ZM230.676 47.6526V26.7278H235.38V30.2833H235.625C236.06 29.0846 236.781 28.1491 237.786 27.4771C238.793 26.796 239.994 26.4554 241.39 26.4554C242.803 26.4554 243.995 26.8005 244.965 27.4907C245.944 28.1719 246.633 29.1028 247.032 30.2833H247.249C247.712 29.1209 248.491 28.1946 249.588 27.5043C250.694 26.805 252.003 26.4554 253.517 26.4554C255.438 26.4554 257.007 27.0639 258.221 28.2808C259.436 29.4978 260.043 31.2732 260.043 33.6073V47.6526H255.108V34.3703C255.108 33.0714 254.763 32.1226 254.075 31.5231C253.386 30.9147 252.543 30.6102 251.546 30.6102C250.358 30.6102 249.429 30.9828 248.758 31.7275C248.097 32.463 247.766 33.4212 247.766 34.602V47.6526H242.94V34.1659C242.94 33.0852 242.613 32.2224 241.961 31.5777C241.317 30.9327 240.474 30.6102 239.432 30.6102C238.725 30.6102 238.081 30.7919 237.501 31.1554C236.921 31.5094 236.459 32.0135 236.114 32.6674C235.77 33.3124 235.598 34.0661 235.598 34.9287V47.6526H230.676ZM271.046 48.0749C269.722 48.0749 268.53 47.8387 267.47 47.3664C266.419 46.885 265.585 46.1768 264.968 45.2415C264.361 44.3058 264.057 43.1525 264.057 41.7811C264.057 40.6006 264.275 39.6241 264.71 38.8521C265.145 38.0804 265.739 37.4627 266.491 36.9996C267.243 36.5363 268.091 36.1865 269.033 35.9507C269.985 35.7052 270.969 35.5281 271.984 35.4193C273.208 35.2922 274.2 35.1786 274.961 35.0785C275.723 34.9697 276.276 34.8061 276.62 34.5882C276.974 34.3613 277.15 34.0116 277.15 33.5392V33.4574C277.15 32.4312 276.847 31.6367 276.239 31.0736C275.632 30.5104 274.758 30.229 273.615 30.229C272.41 30.229 271.454 30.4922 270.746 31.019C270.049 31.5459 269.577 32.1678 269.333 32.8853L264.737 32.2313C265.1 30.96 265.698 29.8974 266.532 29.0437C267.366 28.1809 268.386 27.5361 269.591 27.1093C270.796 26.6733 272.129 26.4554 273.588 26.4554C274.594 26.4554 275.596 26.5735 276.593 26.8096C277.59 27.0457 278.501 27.4362 279.326 27.9811C280.15 28.517 280.812 29.2481 281.311 30.1745C281.818 31.1009 282.072 32.2586 282.072 33.6483V47.6526H277.341V44.7781H277.177C276.878 45.3592 276.457 45.9044 275.913 46.413C275.378 46.9123 274.703 47.3166 273.887 47.6253C273.08 47.925 272.133 48.0749 271.046 48.0749ZM272.324 44.4511C273.312 44.4511 274.168 44.256 274.893 43.8655C275.618 43.4657 276.176 42.9391 276.566 42.2852C276.964 41.6312 277.164 40.9182 277.164 40.1465V37.6805C277.01 37.8079 276.747 37.9257 276.375 38.0348C276.013 38.1439 275.605 38.2392 275.152 38.321C274.699 38.4025 274.25 38.4754 273.806 38.5389C273.362 38.6024 272.976 38.657 272.65 38.7022C271.916 38.8023 271.259 38.9657 270.679 39.1929C270.099 39.4197 269.641 39.7377 269.305 40.1465C268.97 40.546 268.802 41.0636 268.802 41.6993C268.802 42.6077 269.133 43.2934 269.795 43.7564C270.457 44.2195 271.299 44.4511 272.324 44.4511ZM291.943 35.392V47.6526H287.021V26.7278H291.725V30.2833H291.97C292.45 29.1119 293.216 28.1809 294.268 27.4907C295.328 26.8005 296.638 26.4554 298.197 26.4554C299.638 26.4554 300.894 26.7642 301.962 27.3817C303.042 27.9993 303.876 28.8939 304.465 30.0654C305.064 31.2369 305.357 32.6584 305.348 34.3293V47.6526H300.427V35.0923C300.427 33.6936 300.065 32.5994 299.339 31.8091C298.623 31.019 297.63 30.624 296.361 30.624C295.5 30.624 294.734 30.8146 294.064 31.1962C293.402 31.5684 292.881 32.1088 292.5 32.8173C292.128 33.5258 291.943 34.3838 291.943 35.392ZM135.387 83.3173V61.9565H137.968V71.4688H149.335V61.9565H151.917V83.3173H149.335V73.7633H137.968V83.3173H135.387ZM163.248 83.6511C161.804 83.6511 160.538 83.3068 159.448 82.6184C158.365 81.9299 157.519 80.967 156.908 79.7292C156.305 78.4917 156.002 77.0454 156.002 75.3904C156.002 73.7217 156.305 72.2648 156.908 71.0201C157.519 69.7758 158.365 68.8092 159.448 68.1208C160.538 67.4324 161.804 67.088 163.248 67.088C164.691 67.088 165.954 67.4324 167.037 68.1208C168.126 68.8092 168.973 69.7758 169.576 71.0201C170.187 72.2648 170.493 73.7217 170.493 75.3904C170.493 77.0454 170.187 78.4917 169.576 79.7292C168.973 80.967 168.126 81.9299 167.037 82.6184C165.954 83.3068 164.691 83.6511 163.248 83.6511ZM163.248 81.4399C164.344 81.4399 165.246 81.1582 165.954 80.5951C166.662 80.0319 167.186 79.2914 167.526 78.3734C167.866 77.4557 168.036 76.4613 168.036 75.3904C168.036 74.3196 167.866 73.3219 167.526 72.397C167.186 71.4724 166.662 70.7246 165.954 70.1546C165.246 69.5846 164.344 69.2992 163.248 69.2992C162.151 69.2992 161.249 69.5846 160.541 70.1546C159.833 70.7246 159.309 71.4724 158.969 72.397C158.629 73.3219 158.459 74.3196 158.459 75.3904C158.459 76.4613 158.629 77.4557 158.969 78.3734C159.309 79.2914 159.833 80.0319 160.541 80.5951C161.249 81.1582 162.151 81.4399 163.248 81.4399ZM184.319 76.7672V67.2966H186.775V83.3173H184.319V80.6055H184.152C183.777 81.4189 183.195 82.111 182.404 82.681C181.612 83.2441 180.613 83.5259 179.406 83.5259C178.406 83.5259 177.518 83.3068 176.741 82.8689C175.963 82.4238 175.353 81.7561 174.909 80.8663C174.465 79.9693 174.243 78.8394 174.243 77.4763V67.2966H176.699V77.3097C176.699 78.4777 177.025 79.4094 177.678 80.1047C178.337 80.8001 179.176 81.1477 180.197 81.1477C180.807 81.1477 181.428 80.9913 182.06 80.6784C182.698 80.3655 183.233 79.8857 183.663 79.2392C184.1 78.5924 184.319 77.7686 184.319 76.7672ZM202.6 70.8847L200.394 71.5105C200.255 71.1418 200.05 70.784 199.78 70.4363C199.516 70.0815 199.155 69.7896 198.697 69.56C198.239 69.3307 197.652 69.2159 196.938 69.2159C195.959 69.2159 195.144 69.4419 194.492 69.8939C193.846 70.3389 193.523 70.9057 193.523 71.5941C193.523 72.2058 193.745 72.6892 194.189 73.0437C194.634 73.3983 195.328 73.6938 196.272 73.9303L198.645 74.5144C200.074 74.862 201.14 75.394 201.84 76.11C202.541 76.8194 202.892 77.7338 202.892 78.8532C202.892 79.7712 202.628 80.5915 202.101 81.3146C201.58 82.0378 200.852 82.6082 199.915 83.0254C198.978 83.4425 197.888 83.6511 196.646 83.6511C195.015 83.6511 193.666 83.2963 192.597 82.5872C191.528 81.8778 190.852 80.842 190.567 79.479L192.899 78.8948C193.121 79.7571 193.541 80.4039 194.158 80.8348C194.783 81.2661 195.598 81.4816 196.604 81.4816C197.749 81.4816 198.659 81.2382 199.332 80.7515C200.012 80.2579 200.352 79.6669 200.352 78.9785C200.352 78.4222 200.158 77.9562 199.769 77.5806C199.38 77.1982 198.783 76.9132 197.979 76.7256L195.314 76.0998C193.849 75.7522 192.774 75.2133 192.087 74.4829C191.407 73.7459 191.067 72.8247 191.067 71.719C191.067 70.8151 191.32 70.0155 191.826 69.3202C192.34 68.6249 193.038 68.0791 193.919 67.6826C194.807 67.2864 195.813 67.088 196.938 67.088C198.52 67.088 199.762 67.4357 200.664 68.1313C201.573 68.8266 202.219 69.7443 202.6 70.8847ZM213.293 83.6511C211.753 83.6511 210.424 83.3104 209.307 82.6288C208.196 81.9404 207.339 80.9811 206.735 79.7502C206.139 78.5124 205.84 77.0732 205.84 75.4321C205.84 73.7912 206.139 72.3448 206.735 71.0933C207.339 69.8348 208.179 68.8542 209.254 68.152C210.337 67.4429 211.6 67.088 213.044 67.088C213.876 67.088 214.699 67.2271 215.511 67.5052C216.322 67.7836 217.062 68.2356 217.728 68.8614C218.394 69.48 218.925 70.3006 219.32 71.3228C219.716 72.3448 219.914 73.6036 219.914 75.0985V76.1415H207.589V74.0136H217.415C217.415 73.1097 217.235 72.3032 216.874 71.5941C216.52 70.8847 216.014 70.3248 215.355 69.9148C214.702 69.5045 213.932 69.2992 213.044 69.2992C212.065 69.2992 211.218 69.5426 210.504 70.0293C209.796 70.5091 209.251 71.1349 208.87 71.907C208.488 72.6787 208.297 73.5062 208.297 74.3891V75.8076C208.297 77.0175 208.505 78.0431 208.922 78.8847C209.345 79.719 209.931 80.355 210.681 80.7932C211.43 81.2244 212.301 81.4399 213.293 81.4399C213.939 81.4399 214.522 81.3494 215.042 81.1687C215.57 80.9811 216.024 80.703 216.406 80.3343C216.788 79.9588 217.083 79.4931 217.291 78.9368L219.664 79.6042C219.414 80.4107 218.994 81.1201 218.404 81.7318C217.814 82.3369 217.086 82.8096 216.218 83.1503C215.351 83.4842 214.376 83.6511 213.293 83.6511Z" fill="#E3B733"/>
<path d="M118 6L118 97" stroke="#E3B733" stroke-width="3" stroke-linecap="round"/>
</g>
</g>
<defs>
<clipPath id="clip0_1016_254">
<rect width="307" height="101" fill="white"/>
</clipPath>
</defs>
</svg>
